<svg id="visual" viewBox="0 0 900 600" width="900" height="600" xmlns="http://www.w3.org/2000/svg" xmlns:xlink="http://www.w3.org/1999/xlink" version="1.1"><rect x="0" y="0" width="900" height="600" fill="#001220"></rect><path d="M0 409L30 411C60 413 120 417 180 409.7C240 402.3 300 383.7 360 368.2C420 352.7 480 340.3 540 349.2C600 358 660 388 720 402.5C780 417 840 416 870 415.5L900 415L900 601L870 601C840 601 780 601 720 601C660 601 600 601 540 601C480 601 420 601 360 601C300 601 240 601 180 601C120 601 60 601 30 601L0 601Z" fill="#69f6fa"></path><path d="M0 397L30 407.7C60 418.3 120 439.7 180 446.8C240 454 300 447 360 441.5C420 436 480 432 540 427C600 422 660 416 720 409.2C780 402.3 840 394.7 870 390.8L900 387L900 601L870 601C840 601 780 601 720 601C660 601 600 601 540 601C480 601 420 601 360 601C300 601 240 601 180 601C120 601 60 601 30 601L0 601Z" fill="#00d0ff"></path><path d="M0 487L30 487C60 487 120 487 180 488.8C240 490.7 300 494.3 360 493.3C420 492.3 480 486.7 540 489.3C600 492 660 503 720 505.7C780 508.3 840 502.7 870 499.8L900 497L900 601L870 601C840 601 780 601 720 601C660 601 600 601 540 601C480 601 420 601 360 601C300 601 240 601 180 601C120 601 60 601 30 601L0 601Z" fill="#00a2ff"></path><path d="M0 524L30 528.5C60 533 120 542 180 544.8C240 547.7 300 544.3 360 538.7C420 533 480 525 540 520.8C600 516.7 660 516.3 720 522.8C780 529.3 840 542.7 870 549.3L900 556L900 601L870 601C840 601 780 601 720 601C660 601 600 601 540 601C480 601 420 601 360 601C300 601 240 601 180 601C120 601 60 601 30 601L0 601Z" fill="#0066ff"></path></svg>