<svg id="visual" viewBox="0 0 900 600" width="900" height="600" xmlns="http://www.w3.org/2000/svg" xmlns:xlink="http://www.w3.org/1999/xlink" version="1.1"><rect x="0" y="0" width="900" height="600" fill="#001220"></rect><path d="M0 323L37.5 326.7C75 330.3 150 337.7 225 330.8C300 324 375 303 450 300.7C525 298.3 600 314.7 675 328.5C750 342.3 825 353.7 862.5 359.3L900 365L900 601L862.5 601C825 601 750 601 675 601C600 601 525 601 450 601C375 601 300 601 225 601C150 601 75 601 37.5 601L0 601Z" fill="#3bffff"></path><path d="M0 398L37.5 395.7C75 393.3 150 388.7 225 393C300 397.3 375 410.7 450 412C525 413.3 600 402.7 675 391.5C750 380.3 825 368.7 862.5 362.8L900 357L900 601L862.5 601C825 601 750 601 675 601C600 601 525 601 450 601C375 601 300 601 225 601C150 601 75 601 37.5 601L0 601Z" fill="#00d5ff"></path><path d="M0 445L37.5 447.7C75 450.3 150 455.7 225 450.3C300 445 375 429 450 423.5C525 418 600 423 675 425.8C750 428.7 825 429.3 862.5 429.7L900 430L900 601L862.5 601C825 601 750 601 675 601C600 601 525 601 450 601C375 601 300 601 225 601C150 601 75 601 37.5 601L0 601Z" fill="#00a6ff"></path><path d="M0 525L37.5 523.8C75 522.7 150 520.3 225 515.2C300 510 375 502 450 503.3C525 504.7 600 515.3 675 515.2C750 515 825 504 862.5 498.5L900 493L900 601L862.5 601C825 601 750 601 675 601C600 601 525 601 450 601C375 601 300 601 225 601C150 601 75 601 37.5 601L0 601Z" fill="#0066ff"></path></svg>