<svg id="visual" viewBox="0 0 900 600" width="900" height="600" xmlns="http://www.w3.org/2000/svg" xmlns:xlink="http://www.w3.org/1999/xlink" version="1.1"><rect x="0" y="0" width="900" height="600" fill="#001220"></rect><path d="M0 391L30 394.2C60 397.3 120 403.7 180 400.3C240 397 300 384 360 386.2C420 388.3 480 405.7 540 399.5C600 393.3 660 363.7 720 356C780 348.3 840 362.7 870 369.8L900 377L900 601L870 601C840 601 780 601 720 601C660 601 600 601 540 601C480 601 420 601 360 601C300 601 240 601 180 601C120 601 60 601 30 601L0 601Z" fill="#69f6fa"></path><path d="M0 396L30 406.3C60 416.7 120 437.3 180 443.8C240 450.3 300 442.7 360 428.7C420 414.7 480 394.3 540 394.5C600 394.7 660 415.3 720 416C780 416.7 840 397.3 870 387.7L900 378L900 601L870 601C840 601 780 601 720 601C660 601 600 601 540 601C480 601 420 601 360 601C300 601 240 601 180 601C120 601 60 601 30 601L0 601Z" fill="#00d0ff"></path><path d="M0 485L30 488.8C60 492.7 120 500.3 180 493.3C240 486.3 300 464.7 360 459.7C420 454.7 480 466.3 540 464.8C600 463.3 660 448.7 720 450C780 451.3 840 468.7 870 477.3L900 486L900 601L870 601C840 601 780 601 720 601C660 601 600 601 540 601C480 601 420 601 360 601C300 601 240 601 180 601C120 601 60 601 30 601L0 601Z" fill="#00a2ff"></path><path d="M0 532L30 526C60 520 120 508 180 505.7C240 503.3 300 510.7 360 510.2C420 509.7 480 501.3 540 502.7C600 504 660 515 720 523.7C780 532.3 840 538.7 870 541.8L900 545L900 601L870 601C840 601 780 601 720 601C660 601 600 601 540 601C480 601 420 601 360 601C300 601 240 601 180 601C120 601 60 601 30 601L0 601Z" fill="#0066ff"></path></svg>